<mxfile host="65bd71144e">
    <diagram id="snsewPdBZiITs1Ov0gJ0" name="Page-1">
        <mxGraphModel dx="1281" dy="792" grid="1" gridSize="10" guides="1" tooltips="1" connect="1" arrows="1" fold="1" page="1" pageScale="1" pageWidth="850" pageHeight="1100" math="0" shadow="0">
            <root>
                <mxCell id="0"/>
                <mxCell id="1" parent="0"/>
                <mxCell id="40" value="" style="whiteSpace=wrap;html=1;" vertex="1" parent="1">
                    <mxGeometry width="810" height="310" as="geometry"/>
                </mxCell>
                <mxCell id="5" value="Furbolista" style="whiteSpace=wrap;html=1;align=center;" parent="1" vertex="1">
                    <mxGeometry x="180" y="120" width="100" height="40" as="geometry"/>
                </mxCell>
                <mxCell id="6" value="Club" style="whiteSpace=wrap;html=1;align=center;" parent="1" vertex="1">
                    <mxGeometry x="520" y="120" width="100" height="40" as="geometry"/>
                </mxCell>
                <mxCell id="8" value="Nombre" style="ellipse;whiteSpace=wrap;html=1;align=center;" parent="1" vertex="1">
                    <mxGeometry x="20" y="30" width="100" height="40" as="geometry"/>
                </mxCell>
                <mxCell id="9" value="Apellido" style="ellipse;whiteSpace=wrap;html=1;align=center;" parent="1" vertex="1">
                    <mxGeometry x="20" y="80" width="100" height="40" as="geometry"/>
                </mxCell>
                <mxCell id="10" value="Nacimiento" style="ellipse;whiteSpace=wrap;html=1;align=center;" parent="1" vertex="1">
                    <mxGeometry x="20" y="130" width="100" height="40" as="geometry"/>
                </mxCell>
                <mxCell id="11" value="Nacionalidad" style="ellipse;whiteSpace=wrap;html=1;align=center;" parent="1" vertex="1">
                    <mxGeometry x="20" y="180" width="100" height="40" as="geometry"/>
                </mxCell>
                <mxCell id="12" value="NIF" style="ellipse;whiteSpace=wrap;html=1;align=center;fontStyle=4;" parent="1" vertex="1">
                    <mxGeometry x="20" y="230" width="100" height="40" as="geometry"/>
                </mxCell>
                <mxCell id="13" value="" style="endArrow=none;html=1;rounded=0;exitX=1;exitY=0.5;exitDx=0;exitDy=0;entryX=0;entryY=0.5;entryDx=0;entryDy=0;" parent="1" source="8" target="5" edge="1">
                    <mxGeometry relative="1" as="geometry">
                        <mxPoint x="150" y="270" as="sourcePoint"/>
                        <mxPoint x="310" y="270" as="targetPoint"/>
                    </mxGeometry>
                </mxCell>
                <mxCell id="14" value="" style="endArrow=none;html=1;rounded=0;exitX=1;exitY=0.5;exitDx=0;exitDy=0;entryX=0;entryY=0.5;entryDx=0;entryDy=0;" parent="1" source="9" target="5" edge="1">
                    <mxGeometry relative="1" as="geometry">
                        <mxPoint x="130" y="60" as="sourcePoint"/>
                        <mxPoint x="190" y="150" as="targetPoint"/>
                    </mxGeometry>
                </mxCell>
                <mxCell id="15" value="" style="endArrow=none;html=1;rounded=0;exitX=1;exitY=0.5;exitDx=0;exitDy=0;" parent="1" source="10" edge="1">
                    <mxGeometry relative="1" as="geometry">
                        <mxPoint x="140" y="70" as="sourcePoint"/>
                        <mxPoint x="180" y="140" as="targetPoint"/>
                    </mxGeometry>
                </mxCell>
                <mxCell id="16" value="" style="endArrow=none;html=1;rounded=0;exitX=1;exitY=0.5;exitDx=0;exitDy=0;" parent="1" source="11" edge="1">
                    <mxGeometry relative="1" as="geometry">
                        <mxPoint x="150" y="80" as="sourcePoint"/>
                        <mxPoint x="180" y="140" as="targetPoint"/>
                    </mxGeometry>
                </mxCell>
                <mxCell id="17" value="" style="endArrow=none;html=1;rounded=0;exitX=1;exitY=0.5;exitDx=0;exitDy=0;entryX=0;entryY=0.5;entryDx=0;entryDy=0;" parent="1" source="12" target="5" edge="1">
                    <mxGeometry relative="1" as="geometry">
                        <mxPoint x="160" y="90" as="sourcePoint"/>
                        <mxPoint x="220" y="180" as="targetPoint"/>
                    </mxGeometry>
                </mxCell>
                <mxCell id="18" value="Nombre" style="ellipse;whiteSpace=wrap;html=1;align=center;" parent="1" vertex="1">
                    <mxGeometry x="680" y="95" width="100" height="40" as="geometry"/>
                </mxCell>
                <mxCell id="19" value="Creacion" style="ellipse;whiteSpace=wrap;html=1;align=center;" parent="1" vertex="1">
                    <mxGeometry x="680" y="145" width="100" height="40" as="geometry"/>
                </mxCell>
                <mxCell id="20" value="Estadio" style="ellipse;whiteSpace=wrap;html=1;align=center;" parent="1" vertex="1">
                    <mxGeometry x="680" y="195" width="100" height="40" as="geometry"/>
                </mxCell>
                <mxCell id="22" value="ID" style="ellipse;whiteSpace=wrap;html=1;align=center;fontStyle=4;" parent="1" vertex="1">
                    <mxGeometry x="680" y="45" width="100" height="40" as="geometry"/>
                </mxCell>
                <mxCell id="23" value="" style="endArrow=none;html=1;rounded=0;exitX=0;exitY=0.5;exitDx=0;exitDy=0;entryX=1;entryY=0.5;entryDx=0;entryDy=0;" parent="1" source="22" target="6" edge="1">
                    <mxGeometry relative="1" as="geometry">
                        <mxPoint x="160" y="60" as="sourcePoint"/>
                        <mxPoint x="220" y="150" as="targetPoint"/>
                    </mxGeometry>
                </mxCell>
                <mxCell id="24" value="" style="endArrow=none;html=1;rounded=0;exitX=0;exitY=0.5;exitDx=0;exitDy=0;entryX=1;entryY=0.5;entryDx=0;entryDy=0;" parent="1" source="18" target="6" edge="1">
                    <mxGeometry relative="1" as="geometry">
                        <mxPoint x="690" y="75" as="sourcePoint"/>
                        <mxPoint x="630" y="150" as="targetPoint"/>
                    </mxGeometry>
                </mxCell>
                <mxCell id="25" value="" style="endArrow=none;html=1;rounded=0;exitX=0;exitY=0.5;exitDx=0;exitDy=0;entryX=1;entryY=0.5;entryDx=0;entryDy=0;" parent="1" source="19" target="6" edge="1">
                    <mxGeometry relative="1" as="geometry">
                        <mxPoint x="700" y="85" as="sourcePoint"/>
                        <mxPoint x="640" y="160" as="targetPoint"/>
                    </mxGeometry>
                </mxCell>
                <mxCell id="26" value="" style="endArrow=none;html=1;rounded=0;exitX=0;exitY=0.5;exitDx=0;exitDy=0;" parent="1" source="20" edge="1">
                    <mxGeometry relative="1" as="geometry">
                        <mxPoint x="710" y="95" as="sourcePoint"/>
                        <mxPoint x="620" y="140" as="targetPoint"/>
                    </mxGeometry>
                </mxCell>
                <mxCell id="27" value="Temporada" style="ellipse;whiteSpace=wrap;html=1;align=center;" parent="1" vertex="1">
                    <mxGeometry x="350" y="230" width="100" height="40" as="geometry"/>
                </mxCell>
                <mxCell id="32" value="" style="endArrow=none;html=1;rounded=0;exitX=0.5;exitY=0;exitDx=0;exitDy=0;entryX=0.5;entryY=1;entryDx=0;entryDy=0;" parent="1" source="27" target="33" edge="1">
                    <mxGeometry relative="1" as="geometry">
                        <mxPoint x="280" y="560" as="sourcePoint"/>
                        <mxPoint x="370" y="490" as="targetPoint"/>
                    </mxGeometry>
                </mxCell>
                <mxCell id="33" value="Militacion" style="shape=rhombus;perimeter=rhombusPerimeter;whiteSpace=wrap;html=1;align=center;" parent="1" vertex="1">
                    <mxGeometry x="340" y="110" width="120" height="60" as="geometry"/>
                </mxCell>
                <mxCell id="35" value="1:N" style="text;html=1;strokeColor=none;fillColor=none;align=center;verticalAlign=middle;whiteSpace=wrap;rounded=0;" parent="1" vertex="1">
                    <mxGeometry x="270" y="115" width="60" height="30" as="geometry"/>
                </mxCell>
                <mxCell id="36" value="" style="endArrow=none;html=1;rounded=0;exitX=1;exitY=0.5;exitDx=0;exitDy=0;entryX=0;entryY=0.5;entryDx=0;entryDy=0;" parent="1" source="5" target="33" edge="1">
                    <mxGeometry relative="1" as="geometry">
                        <mxPoint x="320" y="170" as="sourcePoint"/>
                        <mxPoint x="480" y="170" as="targetPoint"/>
                        <Array as="points">
                            <mxPoint x="310" y="140"/>
                        </Array>
                    </mxGeometry>
                </mxCell>
                <mxCell id="37" value="" style="endArrow=none;html=1;rounded=0;exitX=1;exitY=0.5;exitDx=0;exitDy=0;entryX=0;entryY=0.5;entryDx=0;entryDy=0;" parent="1" source="33" target="6" edge="1">
                    <mxGeometry relative="1" as="geometry">
                        <mxPoint x="420" y="210" as="sourcePoint"/>
                        <mxPoint x="580" y="210" as="targetPoint"/>
                        <Array as="points">
                            <mxPoint x="490" y="140"/>
                        </Array>
                    </mxGeometry>
                </mxCell>
                <mxCell id="38" value="N:1" style="text;html=1;strokeColor=none;fillColor=none;align=center;verticalAlign=middle;whiteSpace=wrap;rounded=0;" parent="1" vertex="1">
                    <mxGeometry x="470" y="115" width="60" height="30" as="geometry"/>
                </mxCell>
                <mxCell id="39" value="N:M" style="text;html=1;strokeColor=none;fillColor=none;align=center;verticalAlign=middle;whiteSpace=wrap;rounded=0;" parent="1" vertex="1">
                    <mxGeometry x="370" y="80" width="60" height="30" as="geometry"/>
                </mxCell>
            </root>
        </mxGraphModel>
    </diagram>
</mxfile>